<svg width="168" height="168" viewBox="0 0 168 168" fill="none" xmlns="http://www.w3.org/2000/svg">
<g filter="url(#filter0_dd_18120_6976)">
<path d="M20 64C20 28.6538 48.6538 0 84 0C119.346 0 148 28.6538 148 64C148 99.3462 119.346 128 84 128C48.6538 128 20 99.3462 20 64Z" fill="#2563EB"/>
<path d="M84 89C97.8071 89 109 77.8071 109 64C109 50.1929 97.8071 39 84 39C70.1929 39 59 50.1929 59 64C59 77.8071 70.1929 89 84 89Z" fill="#FCD6B8"/>
<path d="M59 59C59 45.6667 67.3333 39 84 39C100.667 39 109 45.6667 109 59L104 64C100.667 50.6667 94 44 84 44C74 44 67.3333 50.6667 64 64L59 59Z" fill="#2C1810"/>
<path d="M74 60C75.6569 60 77 58.2091 77 56C77 53.7909 75.6569 52 74 52C72.3431 52 71 53.7909 71 56C71 58.2091 72.3431 60 74 60Z" fill="#2C1810"/>
<path d="M94 60C95.6569 60 97 58.2091 97 56C97 53.7909 95.6569 52 94 52C92.3431 52 91 53.7909 91 56C91 58.2091 92.3431 60 94 60Z" fill="#2C1810"/>
<path d="M69 50C72.3333 48.6667 75.6667 48.6667 79 50" stroke="#2C1810" stroke-width="1.5" stroke-linecap="round"/>
<path d="M89 50C92.3333 48.6667 95.6667 48.6667 99 50" stroke="#2C1810" stroke-width="1.5" stroke-linecap="round"/>
<path d="M84 60L82 66H86" stroke="#D4A574" stroke-linecap="round"/>
<path d="M76 72C81.3333 74.6667 86.6667 74.6667 92 72" stroke="#8B4545" stroke-width="2" stroke-linecap="round"/>
</g>
<defs>
<filter id="filter0_dd_18120_6976" x="0" y="0" width="168" height="168" filterUnits="userSpaceOnUse" color-interpolation-filters="sRGB">
<feFlood flood-opacity="0" result="BackgroundImageFix"/>
<feColorMatrix in="SourceAlpha" type="matrix" values="0 0 0 0 0 0 0 0 0 0 0 0 0 0 0 0 0 0 127 0" result="hardAlpha"/>
<feMorphology radius="6" operator="erode" in="SourceAlpha" result="effect1_dropShadow_18120_6976"/>
<feOffset dy="8"/>
<feGaussianBlur stdDeviation="5"/>
<feComposite in2="hardAlpha" operator="out"/>
<feColorMatrix type="matrix" values="0 0 0 0 0 0 0 0 0 0 0 0 0 0 0 0 0 0 0.1 0"/>
<feBlend mode="normal" in2="BackgroundImageFix" result="effect1_dropShadow_18120_6976"/>
<feColorMatrix in="SourceAlpha" type="matrix" values="0 0 0 0 0 0 0 0 0 0 0 0 0 0 0 0 0 0 127 0" result="hardAlpha"/>
<feMorphology radius="5" operator="erode" in="SourceAlpha" result="effect2_dropShadow_18120_6976"/>
<feOffset dy="20"/>
<feGaussianBlur stdDeviation="12.5"/>
<feComposite in2="hardAlpha" operator="out"/>
<feColorMatrix type="matrix" values="0 0 0 0 0 0 0 0 0 0 0 0 0 0 0 0 0 0 0.1 0"/>
<feBlend mode="normal" in2="effect1_dropShadow_18120_6976" result="effect2_dropShadow_18120_6976"/>
<feBlend mode="normal" in="SourceGraphic" in2="effect2_dropShadow_18120_6976" result="shape"/>
</filter>
</defs>
</svg>
