<svg width="20" height="20" viewBox="0 0 20 20" fill="none" xmlns="http://www.w3.org/2000/svg">
<path d="M12.6667 2.5C13.1063 2.50626 13.5256 2.68598 13.8333 3L17 6.16667C17.314 6.47438 17.4937 6.89372 17.5 7.33333V15.8333C17.5 16.2754 17.3244 16.6993 17.0118 17.0118C16.6993 17.3244 16.2754 17.5 15.8333 17.5H4.16667C3.72464 17.5 3.30072 17.3244 2.98816 17.0118C2.67559 16.6993 2.5 16.2754 2.5 15.8333V4.16667C2.5 3.72464 2.67559 3.30072 2.98816 2.98816C3.30072 2.67559 3.72464 2.5 4.16667 2.5H12.6667Z" stroke="#0F172A" stroke-width="1.33333" stroke-linecap="round" stroke-linejoin="round"/>
<path d="M14.1667 17.4997V11.6663C14.1667 11.4453 14.0789 11.2334 13.9226 11.0771C13.7663 10.9208 13.5544 10.833 13.3334 10.833H6.66671C6.44569 10.833 6.23373 10.9208 6.07745 11.0771C5.92117 11.2334 5.83337 11.4453 5.83337 11.6663V17.4997" stroke="#0F172A" stroke-width="1.33333" stroke-linecap="round" stroke-linejoin="round"/>
<path d="M5.83337 2.5V5.83333C5.83337 6.05435 5.92117 6.26631 6.07745 6.42259C6.23373 6.57887 6.44569 6.66667 6.66671 6.66667H12.5" stroke="#0F172A" stroke-width="1.33333" stroke-linecap="round" stroke-linejoin="round"/>
</svg>
