<svg width="20" height="20" viewBox="0 0 20 20" fill="none" xmlns="http://www.w3.org/2000/svg">
<path d="M9.16797 3.91868C9.1678 3.80261 9.13325 3.68919 9.06869 3.59273C9.00412 3.49627 8.91243 3.4211 8.80518 3.3767C8.69793 3.33231 8.57994 3.32068 8.46609 3.34327C8.35224 3.36587 8.24763 3.42169 8.16547 3.50368L5.34547 6.32285C5.23664 6.43233 5.10716 6.51912 4.96455 6.5782C4.82193 6.63728 4.669 6.66747 4.51464 6.66702H2.5013C2.28029 6.66702 2.06833 6.75481 1.91205 6.91109C1.75577 7.06737 1.66797 7.27934 1.66797 7.50035V12.5003C1.66797 12.7214 1.75577 12.9333 1.91205 13.0896C2.06833 13.2459 2.28029 13.3337 2.5013 13.3337H4.51464C4.669 13.3332 4.82193 13.3634 4.96455 13.4225C5.10716 13.4816 5.23664 13.5684 5.34547 13.6778L8.16464 16.4978C8.2468 16.5802 8.35156 16.6363 8.46563 16.659C8.5797 16.6817 8.69795 16.6701 8.80541 16.6256C8.91286 16.581 9.00467 16.5056 9.06922 16.4088C9.13376 16.3121 9.16813 16.1983 9.16797 16.082V3.91868Z" stroke="#2563EB" stroke-width="1.66667" stroke-linecap="round" stroke-linejoin="round"/>
<path d="M13.332 7.5C13.873 8.22123 14.1654 9.09846 14.1654 10C14.1654 10.9015 13.873 11.7788 13.332 12.5" stroke="#2563EB" stroke-width="1.66667" stroke-linecap="round" stroke-linejoin="round"/>
<path d="M16.1367 15.302C16.8332 14.6055 17.3856 13.7787 17.7625 12.8688C18.1395 11.9588 18.3335 10.9836 18.3335 9.99865C18.3335 9.01372 18.1395 8.03845 17.7625 7.1285C17.3856 6.21855 16.8332 5.39175 16.1367 4.69531" stroke="#2563EB" stroke-width="1.66667" stroke-linecap="round" stroke-linejoin="round"/>
</svg>
