<svg width="32" height="32" viewBox="0 0 32 32" fill="none" xmlns="http://www.w3.org/2000/svg">
<rect width="32" height="32" rx="16" fill="#00AEEF"/>
<path d="M8.5 17.6667H11C11.442 17.6667 11.866 17.8423 12.1785 18.1548C12.4911 18.4674 12.6667 18.8913 12.6667 19.3333V21.8333C12.6667 22.2754 12.4911 22.6993 12.1785 23.0118C11.866 23.3244 11.442 23.5 11 23.5H10.1667C9.72464 23.5 9.30072 23.3244 8.98816 23.0118C8.67559 22.6993 8.5 22.2754 8.5 21.8333V16C8.5 14.0109 9.29018 12.1032 10.6967 10.6967C12.1032 9.29018 14.0109 8.5 16 8.5C17.9891 8.5 19.8968 9.29018 21.3033 10.6967C22.7098 12.1032 23.5 14.0109 23.5 16V21.8333C23.5 22.2754 23.3244 22.6993 23.0118 23.0118C22.6993 23.3244 22.2754 23.5 21.8333 23.5H21C20.558 23.5 20.134 23.3244 19.8215 23.0118C19.5089 22.6993 19.3333 22.2754 19.3333 21.8333V19.3333C19.3333 18.8913 19.5089 18.4674 19.8215 18.1548C20.134 17.8423 20.558 17.6667 21 17.6667H23.5" stroke="white" stroke-width="1.66667" stroke-linecap="round" stroke-linejoin="round"/>
</svg>
