<svg width="32" height="32" viewBox="0 0 32 32" fill="none" xmlns="http://www.w3.org/2000/svg">
<rect width="32" height="32" rx="16" fill="#2563EB"/>
<path d="M16 11.833V23.4997" stroke="white" stroke-width="1.66667" stroke-linecap="round" stroke-linejoin="round"/>
<path d="M8.49996 21C8.27895 21 8.06698 20.9122 7.9107 20.7559C7.75442 20.5996 7.66663 20.3877 7.66663 20.1667V9.33333C7.66663 9.11232 7.75442 8.90036 7.9107 8.74408C8.06698 8.5878 8.27895 8.5 8.49996 8.5H12.6666C13.5507 8.5 14.3985 8.85119 15.0236 9.47631C15.6488 10.1014 16 10.9493 16 11.8333C16 10.9493 16.3511 10.1014 16.9763 9.47631C17.6014 8.85119 18.4492 8.5 19.3333 8.5H23.5C23.721 8.5 23.9329 8.5878 24.0892 8.74408C24.2455 8.90036 24.3333 9.11232 24.3333 9.33333V20.1667C24.3333 20.3877 24.2455 20.5996 24.0892 20.7559C23.9329 20.9122 23.721 21 23.5 21H18.5C17.8369 21 17.201 21.2634 16.7322 21.7322C16.2634 22.2011 16 22.837 16 23.5C16 22.837 15.7366 22.2011 15.2677 21.7322C14.7989 21.2634 14.163 21 13.5 21H8.49996Z" stroke="white" stroke-width="1.66667" stroke-linecap="round" stroke-linejoin="round"/>
</svg>
