<svg width="17" height="17" viewBox="0 0 17 17" fill="none" xmlns="http://www.w3.org/2000/svg">
<path d="M0.666656 8.16699C0.666656 9.65035 1.10652 11.1004 1.93063 12.3338C2.75475 13.5671 3.92608 14.5284 5.29653 15.0961C6.66698 15.6637 8.17498 15.8123 9.62983 15.5229C11.0847 15.2335 12.4211 14.5192 13.47 13.4703C14.5189 12.4214 15.2332 11.085 15.5225 9.63017C15.8119 8.17531 15.6634 6.66731 15.0958 5.29687C14.5281 3.92642 13.5668 2.75508 12.3334 1.93097C11.1001 1.10686 9.65002 0.666992 8.16666 0.666992C6.06995 0.67488 4.05746 1.49301 2.54999 2.95033L0.666656 4.83366" stroke="#475569" stroke-width="1.33333" stroke-linecap="round" stroke-linejoin="round"/>
</svg>
