<svg width="32" height="32" viewBox="0 0 32 32" fill="none" xmlns="http://www.w3.org/2000/svg">
<rect width="32" height="32" rx="16" fill="#F54900"/>
<path d="M16 21.833V24.333" stroke="white" stroke-width="1.66667" stroke-linecap="round" stroke-linejoin="round"/>
<path d="M21.8333 14.333V15.9997C21.8333 17.5468 21.2187 19.0305 20.1247 20.1245C19.0308 21.2184 17.5471 21.833 16 21.833C14.4529 21.833 12.9691 21.2184 11.8752 20.1245C10.7812 19.0305 10.1666 17.5468 10.1666 15.9997V14.333" stroke="white" stroke-width="1.66667" stroke-linecap="round" stroke-linejoin="round"/>
<path d="M18.5 10.167C18.5 8.78628 17.3807 7.66699 16 7.66699C14.6193 7.66699 13.5 8.78628 13.5 10.167V16.0003C13.5 17.381 14.6193 18.5003 16 18.5003C17.3807 18.5003 18.5 17.381 18.5 16.0003V10.167Z" stroke="white" stroke-width="1.66667" stroke-linecap="round" stroke-linejoin="round"/>
</svg>
