<svg width="20" height="20" viewBox="0 0 20 20" fill="none" xmlns="http://www.w3.org/2000/svg">
<path d="M10 15.833V18.333" stroke="#475569" stroke-width="1.66667" stroke-linecap="round" stroke-linejoin="round"/>
<path d="M15.8333 8.33301V9.99967C15.8333 11.5468 15.2187 13.0305 14.1248 14.1245C13.0308 15.2184 11.5471 15.833 10 15.833C8.4529 15.833 6.96917 15.2184 5.87521 14.1245C4.78125 13.0305 4.16666 11.5468 4.16666 9.99967V8.33301" stroke="#475569" stroke-width="1.66667" stroke-linecap="round" stroke-linejoin="round"/>
<path d="M12.5 4.16699C12.5 2.78628 11.3807 1.66699 10 1.66699C8.61929 1.66699 7.5 2.78628 7.5 4.16699V10.0003C7.5 11.381 8.61929 12.5003 10 12.5003C11.3807 12.5003 12.5 11.381 12.5 10.0003V4.16699Z" stroke="#475569" stroke-width="1.66667" stroke-linecap="round" stroke-linejoin="round"/>
</svg>
