<svg width="20" height="20" viewBox="0 0 20 20" fill="none" xmlns="http://www.w3.org/2000/svg">
<path d="M13.0892 17.7437C12.9329 17.8999 12.721 17.9877 12.5 17.9877C12.279 17.9877 12.0671 17.8999 11.9108 17.7437L10.5892 16.422C10.4329 16.2658 10.3452 16.0539 10.3452 15.8329C10.3452 15.6119 10.4329 15.4 10.5892 15.2437L15.2442 10.5887C15.4004 10.4325 15.6124 10.3447 15.8333 10.3447C16.0543 10.3447 16.2662 10.4325 16.4225 10.5887L17.7442 11.9104C17.9004 12.0667 17.9882 12.2786 17.9882 12.4995C17.9882 12.7205 17.9004 12.9324 17.7442 13.0887L13.0892 17.7437Z" stroke="#475569" stroke-width="1.66667" stroke-linecap="round" stroke-linejoin="round"/>
<path d="M15 10.8337L13.8542 5.10533C13.823 4.94948 13.7479 4.80579 13.6378 4.69121C13.5276 4.57664 13.387 4.49595 13.2325 4.45866L2.69583 1.69033C2.55702 1.65677 2.41191 1.65944 2.27443 1.6981C2.13695 1.73675 2.01172 1.81009 1.91073 1.91107C1.80975 2.01205 1.73642 2.13729 1.69776 2.27477C1.65911 2.41225 1.65643 2.55735 1.68999 2.69616L4.45833 13.2328C4.49561 13.3873 4.5763 13.5279 4.69088 13.6381C4.80546 13.7482 4.94914 13.8233 5.10499 13.8545L10.8333 15.0003" stroke="#475569" stroke-width="1.66667" stroke-linecap="round" stroke-linejoin="round"/>
<path d="M1.91666 1.91699L7.98832 7.98866" stroke="white" stroke-width="1.66667" stroke-linecap="round" stroke-linejoin="round"/>
<path d="M9.16667 10.8333C10.0871 10.8333 10.8333 10.0871 10.8333 9.16667C10.8333 8.24619 10.0871 7.5 9.16667 7.5C8.24619 7.5 7.5 8.24619 7.5 9.16667C7.5 10.0871 8.24619 10.8333 9.16667 10.8333Z" stroke="white" stroke-width="1.66667" stroke-linecap="round" stroke-linejoin="round"/>
</svg>
