<svg width="32" height="32" viewBox="0 0 32 32" fill="none" xmlns="http://www.w3.org/2000/svg">
<rect width="32" height="32" rx="16" fill="#9810FA"/>
<path d="M19.0892 23.7437C18.9329 23.8999 18.721 23.9877 18.5 23.9877C18.2791 23.9877 18.0671 23.8999 17.9109 23.7437L16.5892 22.422C16.433 22.2658 16.3452 22.0539 16.3452 21.8329C16.3452 21.6119 16.433 21.4 16.5892 21.2437L21.2442 16.5887C21.4005 16.4325 21.6124 16.3447 21.8334 16.3447C22.0543 16.3447 22.2663 16.4325 22.4225 16.5887L23.7442 17.9104C23.9004 18.0667 23.9882 18.2786 23.9882 18.4995C23.9882 18.7205 23.9004 18.9324 23.7442 19.0887L19.0892 23.7437Z" stroke="white" stroke-width="1.66667" stroke-linecap="round" stroke-linejoin="round"/>
<path d="M21 16.8337L19.8541 11.1053C19.823 10.9495 19.7479 10.8058 19.6377 10.6912C19.5276 10.5766 19.387 10.4959 19.2325 10.4587L8.6958 7.69033C8.55699 7.65677 8.41188 7.65944 8.2744 7.6981C8.13692 7.73675 8.01169 7.81009 7.9107 7.91107C7.80972 8.01205 7.73639 8.13729 7.69773 8.27477C7.65908 8.41225 7.6564 8.55735 7.68996 8.69616L10.4583 19.2328C10.4956 19.3873 10.5763 19.5279 10.6908 19.6381C10.8054 19.7482 10.9491 19.8233 11.105 19.8545L16.8333 21.0003" stroke="white" stroke-width="1.66667" stroke-linecap="round" stroke-linejoin="round"/>
<path d="M7.91663 7.91699L13.9883 13.9887" stroke="white" stroke-width="1.66667" stroke-linecap="round" stroke-linejoin="round"/>
<path d="M15.1667 16.8333C16.0871 16.8333 16.8333 16.0871 16.8333 15.1667C16.8333 14.2462 16.0871 13.5 15.1667 13.5C14.2462 13.5 13.5 14.2462 13.5 15.1667C13.5 16.0871 14.2462 16.8333 15.1667 16.8333Z" stroke="white" stroke-width="1.66667" stroke-linecap="round" stroke-linejoin="round"/>
</svg>
